<svg aria-hidden="true" style="position: absolute; width: 0; height: 0; overflow: hidden;" version="1.1"
    xmlns="http://www.w3.org/2000/svg" xmlns:xlink="http://www.w3.org/1999/xlink">
    <defs>
        <symbol id="icon-chevron-right" viewBox="0 0 19 32">
            <path
                d="M1.611 16.989c-0.262-0.262-0.409-0.618-0.409-0.989s0.147-0.727 0.409-0.989l14-14c0.128-0.138 0.283-0.248 0.454-0.324s0.357-0.118 0.545-0.121 0.375 0.031 0.549 0.102c0.174 0.070 0.333 0.175 0.466 0.308s0.238 0.291 0.308 0.466c0.070 0.174 0.105 0.361 0.102 0.549s-0.044 0.373-0.121 0.545-0.187 0.326-0.324 0.454l-13.011 13.011 13.011 13.011c0.138 0.128 0.248 0.283 0.324 0.454s0.118 0.357 0.121 0.545c0.003 0.188-0.031 0.375-0.102 0.549s-0.175 0.333-0.308 0.466c-0.133 0.133-0.291 0.238-0.466 0.308s-0.361 0.105-0.549 0.102c-0.188-0.003-0.373-0.044-0.545-0.121s-0.326-0.187-0.454-0.324l-14-14z">
            </path>
        </symbol>
        <symbol id="icon-chevron-left" viewBox="0 0 19 32">
            <path
                d="M17.589 16.989c0.262-0.262 0.409-0.618 0.409-0.989s-0.147-0.727-0.409-0.989l-14-14c-0.128-0.138-0.283-0.248-0.454-0.324s-0.357-0.118-0.545-0.121c-0.188-0.003-0.375 0.031-0.549 0.102s-0.333 0.175-0.466 0.308c-0.133 0.133-0.238 0.291-0.308 0.466s-0.105 0.361-0.102 0.549c0.003 0.188 0.044 0.373 0.121 0.545s0.187 0.326 0.324 0.454l13.011 13.011-13.011 13.011c-0.138 0.128-0.248 0.283-0.324 0.454s-0.118 0.357-0.121 0.545 0.031 0.375 0.102 0.549c0.070 0.174 0.175 0.333 0.308 0.466s0.291 0.238 0.466 0.308c0.174 0.070 0.361 0.105 0.549 0.102s0.373-0.044 0.545-0.121 0.326-0.187 0.454-0.324l14-14z">
            </path>
        </symbol>
        <symbol id="icon-arrow-long-left" viewBox="0 0 32 32">
            <path
                d="M8.448 9.152c0.225 0.225 0.351 0.53 0.351 0.848s-0.126 0.623-0.351 0.848l-3.952 3.952h25.904c0.318 0 0.624 0.126 0.849 0.351s0.351 0.53 0.351 0.849-0.126 0.623-0.351 0.849c-0.225 0.225-0.53 0.351-0.849 0.351h-25.904l3.952 3.952c0.118 0.11 0.212 0.242 0.278 0.39s0.101 0.306 0.104 0.467c0.003 0.161-0.027 0.321-0.087 0.471s-0.15 0.285-0.264 0.399c-0.114 0.114-0.25 0.204-0.399 0.264s-0.309 0.090-0.471 0.087c-0.161-0.003-0.32-0.038-0.467-0.104s-0.28-0.16-0.39-0.278l-6-6c-0.225-0.225-0.351-0.53-0.351-0.848s0.126-0.623 0.351-0.848l6-6c0.225-0.225 0.53-0.351 0.848-0.351s0.623 0.126 0.848 0.351z">
            </path>
        </symbol>
        <symbol id="icon-arrow-right-on-rectangle" viewBox="0 0 32 32">
            <path stroke-linejoin="round" stroke-linecap="round" stroke-miterlimit="4" stroke-width="1.6"
                d="M19.6 11.2v-6c0-0.955-0.379-1.87-1.054-2.546s-1.591-1.054-2.546-1.054h-9.6c-0.955 0-1.87 0.379-2.546 1.054s-1.054 1.591-1.054 2.546v21.6c0 0.955 0.379 1.87 1.054 2.546s1.591 1.054 2.546 1.054h9.6c0.955 0 1.87-0.379 2.546-1.054s1.054-1.591 1.054-2.546v-6M24.4 20.8l4.8-4.8M29.2 16l-4.8-4.8M29.2 16h-20.4">
            </path>
        </symbol>
        <symbol id="icon-arrow-up-tray" viewBox="0 0 32 32">
            <path stroke-linejoin="round" stroke-linecap="round" stroke-miterlimit="4" stroke-width="1.6"
                d="M1.6 23.2v3.6c0 0.955 0.379 1.87 1.054 2.546s1.591 1.054 2.546 1.054h21.6c0.955 0 1.87-0.379 2.546-1.054s1.054-1.591 1.054-2.546v-3.6M8.8 8.8l7.2-7.2M16 1.6l7.2 7.2M16 1.6v21.6">
            </path>
        </symbol>
        <symbol id="icon-calendar-days" viewBox="0 0 32 32">
            <path stroke-linejoin="round" stroke-linecap="round" stroke-miterlimit="4" stroke-width="2"
                d="M7.25 1v3.75M24.75 1v3.75M1 27.25v-18.75c0-0.995 0.395-1.948 1.098-2.652s1.657-1.098 2.652-1.098h22.5c0.995 0 1.948 0.395 2.652 1.098s1.098 1.657 1.098 2.652v18.75M1 27.25c0 0.995 0.395 1.948 1.098 2.652s1.657 1.098 2.652 1.098h22.5c0.995 0 1.948-0.395 2.652-1.098s1.098-1.657 1.098-2.652M1 27.25v-12.5c0-0.995 0.395-1.948 1.098-2.652s1.657-1.098 2.652-1.098h22.5c0.995 0 1.948 0.395 2.652 1.098s1.098 1.657 1.098 2.652v12.5M16 17.25h0.013v0.013h-0.013v-0.013zM16 21h0.013v0.013h-0.013v-0.013zM16 24.75h0.013v0.013h-0.013v-0.013zM12.25 21h0.013v0.013h-0.013v-0.013zM12.25 24.75h0.013v0.013h-0.013v-0.013zM8.5 21h0.013v0.013h-0.013v-0.013zM8.5 24.75h0.013v0.013h-0.013v-0.013zM19.75 17.25h0.013v0.013h-0.013v-0.013zM19.75 21h0.013v0.013h-0.013v-0.013zM19.75 24.75h0.013v0.013h-0.013v-0.013zM23.5 17.25h0.013v0.013h-0.013v-0.013zM23.5 21h0.013v0.013h-0.013v-0.013z">
            </path>
        </symbol>
        <symbol id="icon-chevron-double-up" viewBox="0 0 32 32">
            <path
                d="M16.942 23.609c-0.25 0.25-0.589 0.39-0.942 0.39s-0.692-0.14-0.942-0.39l-13.333-13.333c-0.236-0.253-0.364-0.587-0.358-0.932s0.146-0.675 0.39-0.919c0.244-0.244 0.574-0.384 0.919-0.39s0.68 0.122 0.933 0.358l12.391 12.391 12.391-12.391c0.122-0.131 0.269-0.236 0.433-0.309s0.34-0.112 0.519-0.115c0.179-0.003 0.357 0.030 0.523 0.097s0.317 0.167 0.444 0.293 0.226 0.277 0.294 0.443c0.067 0.166 0.1 0.344 0.097 0.523s-0.042 0.356-0.115 0.519-0.178 0.311-0.309 0.433l-13.333 13.333z">
            </path>
        </symbol>
        <symbol id="icon-cog-6-tooth" viewBox="0 0 32 32">
            <path stroke-linejoin="round" stroke-linecap="round" stroke-miterlimit="4" stroke-width="1.3333"
                d="M12.792 5.253c0.12-0.723 0.747-1.253 1.48-1.253h3.457c0.733 0 1.36 0.531 1.48 1.253l0.284 1.708c0.084 0.499 0.417 0.915 0.86 1.16 0.099 0.053 0.196 0.111 0.293 0.169 0.432 0.261 0.96 0.343 1.433 0.165l1.623-0.608c0.333-0.125 0.699-0.128 1.033-0.008s0.616 0.354 0.793 0.662l1.728 2.996c0.177 0.308 0.24 0.668 0.177 1.018s-0.249 0.665-0.523 0.89l-1.337 1.103c-0.391 0.32-0.584 0.817-0.575 1.323 0.002 0.113 0.002 0.227 0 0.34-0.009 0.504 0.184 1 0.573 1.32l1.34 1.104c0.565 0.467 0.712 1.272 0.347 1.907l-1.731 2.996c-0.177 0.307-0.458 0.542-0.793 0.662s-0.7 0.117-1.033-0.007l-1.623-0.608c-0.473-0.177-1-0.096-1.435 0.165-0.097 0.059-0.194 0.116-0.293 0.171-0.441 0.244-0.775 0.66-0.859 1.159l-0.284 1.707c-0.12 0.724-0.747 1.255-1.48 1.255h-3.459c-0.733 0-1.36-0.531-1.48-1.253l-0.284-1.708c-0.083-0.499-0.416-0.915-0.859-1.16-0.099-0.055-0.197-0.111-0.293-0.169-0.433-0.261-0.96-0.343-1.435-0.165l-1.623 0.608c-0.332 0.125-0.698 0.127-1.032 0.008s-0.615-0.354-0.793-0.661l-1.729-2.996c-0.177-0.308-0.24-0.668-0.176-1.018s0.249-0.665 0.523-0.89l1.339-1.103c0.389-0.32 0.583-0.817 0.573-1.323-0.002-0.113-0.002-0.227 0-0.34 0.009-0.504-0.184-1-0.573-1.32l-1.339-1.104c-0.274-0.225-0.459-0.541-0.523-0.89s-0.001-0.709 0.176-1.017l1.729-2.996c0.178-0.308 0.459-0.543 0.793-0.662s0.701-0.117 1.033 0.008l1.621 0.608c0.475 0.177 1.001 0.096 1.435-0.165 0.096-0.059 0.195-0.116 0.293-0.171 0.443-0.244 0.776-0.66 0.859-1.159l0.285-1.708z">
            </path>
            <path stroke-linejoin="round" stroke-linecap="round" stroke-miterlimit="4" stroke-width="1.3333"
                d="M20 16c0 1.061-0.421 2.078-1.172 2.828s-1.768 1.172-2.828 1.172c-1.061 0-2.078-0.421-2.828-1.172s-1.172-1.768-1.172-2.828c0-1.061 0.421-2.078 1.172-2.828s1.768-1.172 2.828-1.172c1.061 0 2.078 0.421 2.828 1.172s1.172 1.768 1.172 2.828z">
            </path>
        </symbol>
        <symbol id="icon-eye" viewBox="0 0 32 32">
            <path stroke-linejoin="round" stroke-linecap="round" stroke-miterlimit="4" stroke-width="1.0667"
                d="M5.372 14.21c-0.074-0.221-0.074-0.46 0-0.682 1.479-4.451 5.679-7.662 10.628-7.662 4.947 0 9.145 3.207 10.627 7.657 0.075 0.221 0.075 0.46 0 0.682-1.478 4.451-5.678 7.662-10.627 7.662-4.947 0-9.146-3.207-10.628-7.657z">
            </path>
            <path stroke-linejoin="round" stroke-linecap="round" stroke-miterlimit="4" stroke-width="1.0667"
                d="M19.2 13.867c0 0.849-0.337 1.663-0.937 2.263s-1.414 0.937-2.263 0.937c-0.849 0-1.663-0.337-2.263-0.937s-0.937-1.414-0.937-2.263c0-0.849 0.337-1.663 0.937-2.263s1.414-0.937 2.263-0.937c0.849 0 1.663 0.337 2.263 0.937s0.937 1.414 0.937 2.263z">
            </path>
        </symbol>
        <symbol id="icon-eye-slash" viewBox="0 0 32 32">
            <path stroke-linejoin="round" stroke-linecap="round" stroke-miterlimit="4" stroke-width="1.4545"
                d="M4.335 10.506c-1.361 1.606-2.374 3.477-2.976 5.494 1.879 6.31 7.724 10.909 14.641 10.909 1.444 0 2.841-0.201 4.164-0.575M7.604 7.604c2.491-1.644 5.411-2.518 8.396-2.513 6.918 0 12.761 4.599 14.64 10.906-1.030 3.446-3.241 6.42-6.244 8.399M7.604 7.604l-4.695-4.695M7.604 7.604l5.309 5.309M24.396 24.396l4.695 4.695M24.396 24.396l-5.309-5.309c0.405-0.405 0.727-0.886 0.946-1.416s0.332-1.097 0.332-1.67-0.113-1.141-0.332-1.67c-0.219-0.529-0.541-1.011-0.946-1.416s-0.886-0.727-1.416-0.946c-0.529-0.219-1.097-0.332-1.67-0.332s-1.141 0.113-1.67 0.332c-0.529 0.219-1.011 0.541-1.416 0.946M19.085 19.085l-6.169-6.169">
            </path>
        </symbol>
        <symbol id="icon-minus-small" viewBox="0 0 32 32">
            <path
                d="M0.571 16c0-0.455 0.181-0.891 0.502-1.212s0.758-0.502 1.212-0.502h27.429c0.455 0 0.891 0.181 1.212 0.502s0.502 0.758 0.502 1.212-0.181 0.891-0.502 1.212c-0.321 0.322-0.758 0.502-1.212 0.502h-27.429c-0.455 0-0.891-0.181-1.212-0.502s-0.502-0.758-0.502-1.212z">
            </path>
        </symbol>
        <symbol id="icon-pencil-square" viewBox="0 0 32 32">
            <path stroke-linejoin="round" stroke-linecap="round" stroke-miterlimit="4" stroke-width="1.5238"
                d="M22.647 5.314l2.571-2.572c0.536-0.536 1.263-0.837 2.021-0.837s1.485 0.301 2.021 0.837c0.536 0.536 0.837 1.263 0.837 2.021s-0.301 1.485-0.837 2.021l-16.181 16.181c-0.806 0.805-1.799 1.397-2.891 1.722l-4.091 1.219 1.219-4.091c0.325-1.092 0.917-2.085 1.722-2.891l13.611-13.609zM22.647 5.314l4.020 4.020M24.381 19.81v7.238c0 0.909-0.361 1.781-1.004 2.424s-1.515 1.004-2.424 1.004h-16c-0.909 0-1.781-0.361-2.424-1.004s-1.004-1.515-1.004-2.424v-16c0-0.909 0.361-1.781 1.004-2.424s1.515-1.004 2.424-1.004h7.238">
            </path>
        </symbol>
        <symbol id="icon-plus-circle" viewBox="0 0 32 32">
            <path stroke-linejoin="round" stroke-linecap="round" stroke-miterlimit="4" stroke-width="1.6"
                d="M16 11.2v9.6M20.8 16h-9.6M30.4 16c0 1.891-0.372 3.764-1.096 5.511s-1.784 3.334-3.121 4.672c-1.337 1.337-2.925 2.398-4.672 3.121s-3.62 1.096-5.511 1.096-3.764-0.372-5.511-1.096c-1.747-0.724-3.335-1.784-4.672-3.121s-2.398-2.925-3.122-4.672c-0.724-1.747-1.096-3.62-1.096-5.511 0-3.819 1.517-7.482 4.218-10.182s6.363-4.218 10.182-4.218c3.819 0 7.482 1.517 10.182 4.218s4.218 6.363 4.218 10.182z">
            </path>
        </symbol>
        <symbol id="icon-plus-small" viewBox="0 0 32 32">
            <path stroke-linejoin="round" stroke-linecap="round" stroke-miterlimit="4" stroke-width="2.2857"
                d="M16 2.286v27.429M29.714 16h-27.429"></path>
        </symbol>
        <symbol id="icon-presentation-chart-bar" viewBox="0 0 32 32">
            <path stroke-linejoin="round" stroke-linecap="round" stroke-miterlimit="4" stroke-width="1.7778"
                d="M3.778 2.667v16.667c0 0.884 0.351 1.732 0.976 2.357s1.473 0.976 2.357 0.976h3.333M3.778 2.667h-2.222M3.778 2.667h24.444M10.444 22.667h11.111M10.444 22.667l-1.482 4.444M28.222 2.667h2.222M28.222 2.667v16.667c0 0.884-0.351 1.732-0.976 2.357s-1.473 0.976-2.357 0.976h-3.333M21.556 22.667l1.482 4.444M8.963 27.111h14.074M8.963 27.111l-0.741 2.222M23.037 27.111l0.741 2.222M11.556 14.889v2.222M16 11.556v5.556M20.444 8.222v8.889">
            </path>
        </symbol>
        <symbol id="icon-trash" viewBox="0 0 32 32">
            <path stroke-linejoin="round" stroke-linecap="round" stroke-miterlimit="4" stroke-width="1.4545"
                d="M19.985 11.636l-0.503 13.091M12.518 24.727l-0.503-13.091M26.513 6.967c0.497 0.076 0.992 0.156 1.487 0.241M26.513 6.967l-1.553 20.193c-0.063 0.822-0.435 1.59-1.040 2.15s-1.399 0.871-2.224 0.871h-11.392c-0.825 0-1.619-0.311-2.224-0.871s-0.977-1.328-1.040-2.15l-1.553-20.193M26.513 6.967c-1.679-0.254-3.366-0.446-5.059-0.577M5.487 6.967c-0.497 0.074-0.992 0.154-1.487 0.24M5.487 6.967c1.679-0.254 3.366-0.446 5.059-0.577M21.455 6.39v-1.332c0-1.716-1.324-3.148-3.040-3.201-1.609-0.051-3.22-0.051-4.829 0-1.716 0.054-3.040 1.487-3.040 3.201v1.332M21.455 6.39c-3.631-0.281-7.278-0.281-10.909 0">
            </path>
        </symbol>
        <symbol id="icon-user" viewBox="0 0 32 32">
            <path stroke-linejoin="miter" stroke-linecap="butt" stroke-miterlimit="4" stroke-width="1.3333"
                d="M31.333 16c0 8.468-6.865 15.333-15.333 15.333s-15.333-6.865-15.333-15.333c0-8.468 6.865-15.333 15.333-15.333s15.333 6.865 15.333 15.333z">
            </path>
            <path stroke-linejoin="round" stroke-linecap="round" stroke-miterlimit="4" stroke-width="1.3333"
                d="M20.001 9.436c0 1.088-0.421 2.132-1.172 2.901s-1.768 1.202-2.829 1.202c-1.061 0-2.079-0.432-2.829-1.202s-1.172-1.813-1.172-2.901c0-1.088 0.421-2.132 1.172-2.901s1.768-1.202 2.829-1.202c1.061 0 2.079 0.432 2.829 1.202s1.172 1.813 1.172 2.901zM8 24.881c0.034-2.153 0.892-4.205 2.389-5.715s3.512-2.356 5.611-2.356c2.099 0 4.115 0.846 5.611 2.356s2.355 3.562 2.389 5.715c-2.51 1.18-5.239 1.789-8 1.785-2.855 0-5.564-0.639-8-1.785z">
            </path>
        </symbol>
        <symbol id="icon-wrench-screwdriver" viewBox="0 0 32 32">
            <path stroke-linejoin="round" stroke-linecap="round" stroke-miterlimit="4" stroke-width="1.7778"
                d="M15.141 20.696l8.637 8.637c0.741 0.717 1.734 1.114 2.765 1.106s2.017-0.422 2.746-1.151c0.729-0.729 1.142-1.715 1.151-2.746s-0.389-2.024-1.106-2.765l-8.707-8.707M15.141 20.696l3.698-4.489c0.47-0.569 1.096-0.927 1.79-1.135 0.815-0.243 1.723-0.279 2.582-0.207 1.158 0.099 2.322-0.106 3.377-0.595s1.963-1.246 2.634-2.195 1.084-2.057 1.195-3.214c0.111-1.157-0.082-2.323-0.56-3.383l-4.853 4.855c-0.812-0.188-1.555-0.6-2.144-1.189s-1.001-1.332-1.189-2.144l4.853-4.853c-1.059-0.479-2.226-0.672-3.383-0.56s-2.265 0.523-3.214 1.195-1.705 1.58-2.195 2.634c-0.489 1.054-0.695 2.219-0.595 3.377 0.135 1.594-0.105 3.354-1.339 4.37l-0.151 0.126M15.141 20.696l-6.896 8.375c-0.334 0.407-0.75 0.74-1.221 0.977s-0.986 0.373-1.512 0.399c-0.526 0.026-1.052-0.059-1.544-0.248s-0.938-0.48-1.311-0.853-0.663-0.819-0.853-1.311c-0.19-0.492-0.274-1.018-0.248-1.544s0.162-1.041 0.399-1.512c0.237-0.471 0.57-0.887 0.977-1.221l10.129-8.341-6.084-6.084h-2.087l-3.333-5.556 2.222-2.222 5.556 3.333v2.087l6.311 6.311-2.585 2.129M25.444 25.444l-3.889-3.889M5.433 26.556h0.012v0.012h-0.012v-0.012z">
            </path>
        </symbol>
        <symbol id="icon-close" viewBox="0 0 32 32">
            <path fill="none" stroke="#407bff" style="stroke: var(--color1, #407bff)" stroke-linejoin="round"
                stroke-linecap="round" stroke-miterlimit="4" stroke-width="2" d="M8 24l16-16M8 8l16 16"></path>
        </symbol>
    </defs>
</svg>