<svg aria-hidden="true" style="position: absolute; width: 0; height: 0; overflow: hidden;" version="1.1"
    xmlns="http://www.w3.org/2000/svg" xmlns:xlink="http://www.w3.org/1999/xlink">
    <defs>
        <symbol id="icon-chevron-right" viewBox="0 0 19 32">
            <path
                d="M1.611 16.989c-0.262-0.262-0.409-0.618-0.409-0.989s0.147-0.727 0.409-0.989l14-14c0.128-0.138 0.283-0.248 0.454-0.324s0.357-0.118 0.545-0.121 0.375 0.031 0.549 0.102c0.174 0.070 0.333 0.175 0.466 0.308s0.238 0.291 0.308 0.466c0.070 0.174 0.105 0.361 0.102 0.549s-0.044 0.373-0.121 0.545-0.187 0.326-0.324 0.454l-13.011 13.011 13.011 13.011c0.138 0.128 0.248 0.283 0.324 0.454s0.118 0.357 0.121 0.545c0.003 0.188-0.031 0.375-0.102 0.549s-0.175 0.333-0.308 0.466c-0.133 0.133-0.291 0.238-0.466 0.308s-0.361 0.105-0.549 0.102c-0.188-0.003-0.373-0.044-0.545-0.121s-0.326-0.187-0.454-0.324l-14-14z">
            </path>
        </symbol>
        <symbol id="icon-chevron-left" viewBox="0 0 19 32">
            <path
                d="M17.589 16.989c0.262-0.262 0.409-0.618 0.409-0.989s-0.147-0.727-0.409-0.989l-14-14c-0.128-0.138-0.283-0.248-0.454-0.324s-0.357-0.118-0.545-0.121c-0.188-0.003-0.375 0.031-0.549 0.102s-0.333 0.175-0.466 0.308c-0.133 0.133-0.238 0.291-0.308 0.466s-0.105 0.361-0.102 0.549c0.003 0.188 0.044 0.373 0.121 0.545s0.187 0.326 0.324 0.454l13.011 13.011-13.011 13.011c-0.138 0.128-0.248 0.283-0.324 0.454s-0.118 0.357-0.121 0.545 0.031 0.375 0.102 0.549c0.070 0.174 0.175 0.333 0.308 0.466s0.291 0.238 0.466 0.308c0.174 0.070 0.361 0.105 0.549 0.102s0.373-0.044 0.545-0.121 0.326-0.187 0.454-0.324l14-14z">
            </path>
        </symbol>
        <symbol id="icon-arrow-long-left" viewBox="0 0 32 32">
            <path
                d="M8.448 9.152c0.225 0.225 0.351 0.53 0.351 0.848s-0.126 0.623-0.351 0.848l-3.952 3.952h25.904c0.318 0 0.624 0.126 0.849 0.351s0.351 0.53 0.351 0.849-0.126 0.623-0.351 0.849c-0.225 0.225-0.53 0.351-0.849 0.351h-25.904l3.952 3.952c0.118 0.11 0.212 0.242 0.278 0.39s0.101 0.306 0.104 0.467c0.003 0.161-0.027 0.321-0.087 0.471s-0.15 0.285-0.264 0.399c-0.114 0.114-0.25 0.204-0.399 0.264s-0.309 0.090-0.471 0.087c-0.161-0.003-0.32-0.038-0.467-0.104s-0.28-0.16-0.39-0.278l-6-6c-0.225-0.225-0.351-0.53-0.351-0.848s0.126-0.623 0.351-0.848l6-6c0.225-0.225 0.53-0.351 0.848-0.351s0.623 0.126 0.848 0.351z">
            </path>
        </symbol>
        <symbol id="icon-arrow-right-on-rectangle" viewBox="0 0 32 32">
            <path stroke-linejoin="round" stroke-linecap="round" stroke-miterlimit="4" stroke-width="1.6"
                d="M19.6 11.2v-6c0-0.955-0.379-1.87-1.054-2.546s-1.591-1.054-2.546-1.054h-9.6c-0.955 0-1.87 0.379-2.546 1.054s-1.054 1.591-1.054 2.546v21.6c0 0.955 0.379 1.87 1.054 2.546s1.591 1.054 2.546 1.054h9.6c0.955 0 1.87-0.379 2.546-1.054s1.054-1.591 1.054-2.546v-6M24.4 20.8l4.8-4.8M29.2 16l-4.8-4.8M29.2 16h-20.4">
            </path>
        </symbol>
        <symbol id="icon-arrow-up-tray" viewBox="0 0 32 32">
            <path stroke-linejoin="round" stroke-linecap="round" stroke-miterlimit="4" stroke-width="1.6"
                d="M1.6 23.2v3.6c0 0.955 0.379 1.87 1.054 2.546s1.591 1.054 2.546 1.054h21.6c0.955 0 1.87-0.379 2.546-1.054s1.054-1.591 1.054-2.546v-3.6M8.8 8.8l7.2-7.2M16 1.6l7.2 7.2M16 1.6v21.6">
            </path>
        </symbol>
        <symbol id="icon-calendar-days" viewBox="0 0 32 32">
            <path fill="none" stroke="#407bff" stroke-linecap="round" stroke-linejoin="round" stroke-width="1.6"
                d="M9 4v3m14-3v3M4 25V10a3.004 3.004 0 0 1 3-3h18a3.004 3.004 0 0 1 3 3v15M4 25a3.004 3.004 0 0 0 3 3h18a3.004 3.004 0 0 0 3-3M4 25V15a3.004 3.004 0 0 1 3-3h18a3.004 3.004 0 0 1 3 3v10m-12-8h.011v.011H16V17zm0 3h.011v.011H16V20zm0 3h.011v.011H16V23zm-3-3h.011v.011H13V20zm0 3h.011v.011H13V23zm-3-3h.011v.011H10V20zm0 3h.011v.011H10V23zm9-6h.011v.011H19V17zm0 3h.011v.011H19V20zm0 3h.011v.011H19V23zm3-6h.011v.011H22V17zm0 3h.011v.011H22V20z"
                style="stroke:var(--color1, #407bff)" />
        </symbol>
        <symbol id="icon-chevron-double-up" viewBox="0 0 32 32">
            <path
                d="M16.942 23.609c-0.25 0.25-0.589 0.39-0.942 0.39s-0.692-0.14-0.942-0.39l-13.333-13.333c-0.236-0.253-0.364-0.587-0.358-0.932s0.146-0.675 0.39-0.919c0.244-0.244 0.574-0.384 0.919-0.39s0.68 0.122 0.933 0.358l12.391 12.391 12.391-12.391c0.122-0.131 0.269-0.236 0.433-0.309s0.34-0.112 0.519-0.115c0.179-0.003 0.357 0.030 0.523 0.097s0.317 0.167 0.444 0.293 0.226 0.277 0.294 0.443c0.067 0.166 0.1 0.344 0.097 0.523s-0.042 0.356-0.115 0.519-0.178 0.311-0.309 0.433l-13.333 13.333z">
            </path>
        </symbol>
        <symbol id="icon-cog-6-tooth" viewBox="0 0 32 32">
            <path stroke-linejoin="round" stroke-linecap="round" stroke-miterlimit="4" stroke-width="1.3333"
                d="M12.792 5.253c0.12-0.723 0.747-1.253 1.48-1.253h3.457c0.733 0 1.36 0.531 1.48 1.253l0.284 1.708c0.084 0.499 0.417 0.915 0.86 1.16 0.099 0.053 0.196 0.111 0.293 0.169 0.432 0.261 0.96 0.343 1.433 0.165l1.623-0.608c0.333-0.125 0.699-0.128 1.033-0.008s0.616 0.354 0.793 0.662l1.728 2.996c0.177 0.308 0.24 0.668 0.177 1.018s-0.249 0.665-0.523 0.89l-1.337 1.103c-0.391 0.32-0.584 0.817-0.575 1.323 0.002 0.113 0.002 0.227 0 0.34-0.009 0.504 0.184 1 0.573 1.32l1.34 1.104c0.565 0.467 0.712 1.272 0.347 1.907l-1.731 2.996c-0.177 0.307-0.458 0.542-0.793 0.662s-0.7 0.117-1.033-0.007l-1.623-0.608c-0.473-0.177-1-0.096-1.435 0.165-0.097 0.059-0.194 0.116-0.293 0.171-0.441 0.244-0.775 0.66-0.859 1.159l-0.284 1.707c-0.12 0.724-0.747 1.255-1.48 1.255h-3.459c-0.733 0-1.36-0.531-1.48-1.253l-0.284-1.708c-0.083-0.499-0.416-0.915-0.859-1.16-0.099-0.055-0.197-0.111-0.293-0.169-0.433-0.261-0.96-0.343-1.435-0.165l-1.623 0.608c-0.332 0.125-0.698 0.127-1.032 0.008s-0.615-0.354-0.793-0.661l-1.729-2.996c-0.177-0.308-0.24-0.668-0.176-1.018s0.249-0.665 0.523-0.89l1.339-1.103c0.389-0.32 0.583-0.817 0.573-1.323-0.002-0.113-0.002-0.227 0-0.34 0.009-0.504-0.184-1-0.573-1.32l-1.339-1.104c-0.274-0.225-0.459-0.541-0.523-0.89s-0.001-0.709 0.176-1.017l1.729-2.996c0.178-0.308 0.459-0.543 0.793-0.662s0.701-0.117 1.033 0.008l1.621 0.608c0.475 0.177 1.001 0.096 1.435-0.165 0.096-0.059 0.195-0.116 0.293-0.171 0.443-0.244 0.776-0.66 0.859-1.159l0.285-1.708z">
            </path>
            <path stroke-linejoin="round" stroke-linecap="round" stroke-miterlimit="4" stroke-width="1.3333"
                d="M20 16c0 1.061-0.421 2.078-1.172 2.828s-1.768 1.172-2.828 1.172c-1.061 0-2.078-0.421-2.828-1.172s-1.172-1.768-1.172-2.828c0-1.061 0.421-2.078 1.172-2.828s1.768-1.172 2.828-1.172c1.061 0 2.078 0.421 2.828 1.172s1.172 1.768 1.172 2.828z">
            </path>
        </symbol>
        <symbol id="icon-eye" viewBox="0 0 32 32">
            <path stroke-linejoin="round" stroke-linecap="round" stroke-miterlimit="4" stroke-width="1.0667"
                d="M5.372 14.21c-0.074-0.221-0.074-0.46 0-0.682 1.479-4.451 5.679-7.662 10.628-7.662 4.947 0 9.145 3.207 10.627 7.657 0.075 0.221 0.075 0.46 0 0.682-1.478 4.451-5.678 7.662-10.627 7.662-4.947 0-9.146-3.207-10.628-7.657z">
            </path>
            <path stroke-linejoin="round" stroke-linecap="round" stroke-miterlimit="4" stroke-width="1.0667"
                d="M19.2 13.867c0 0.849-0.337 1.663-0.937 2.263s-1.414 0.937-2.263 0.937c-0.849 0-1.663-0.337-2.263-0.937s-0.937-1.414-0.937-2.263c0-0.849 0.337-1.663 0.937-2.263s1.414-0.937 2.263-0.937c0.849 0 1.663 0.337 2.263 0.937s0.937 1.414 0.937 2.263z">
            </path>
        </symbol>
        <symbol id="icon-eye-slash" viewBox="0 0 32 32">
            <path stroke-linejoin="round" stroke-linecap="round" stroke-miterlimit="4" stroke-width="1.4545"
                d="M4.335 10.506c-1.361 1.606-2.374 3.477-2.976 5.494 1.879 6.31 7.724 10.909 14.641 10.909 1.444 0 2.841-0.201 4.164-0.575M7.604 7.604c2.491-1.644 5.411-2.518 8.396-2.513 6.918 0 12.761 4.599 14.64 10.906-1.030 3.446-3.241 6.42-6.244 8.399M7.604 7.604l-4.695-4.695M7.604 7.604l5.309 5.309M24.396 24.396l4.695 4.695M24.396 24.396l-5.309-5.309c0.405-0.405 0.727-0.886 0.946-1.416s0.332-1.097 0.332-1.67-0.113-1.141-0.332-1.67c-0.219-0.529-0.541-1.011-0.946-1.416s-0.886-0.727-1.416-0.946c-0.529-0.219-1.097-0.332-1.67-0.332s-1.141 0.113-1.67 0.332c-0.529 0.219-1.011 0.541-1.416 0.946M19.085 19.085l-6.169-6.169">
            </path>
        </symbol>
        <symbol id="icon-minus-small" viewBox="0 0 32 32">
            <path
                d="M0.571 16c0-0.455 0.181-0.891 0.502-1.212s0.758-0.502 1.212-0.502h27.429c0.455 0 0.891 0.181 1.212 0.502s0.502 0.758 0.502 1.212-0.181 0.891-0.502 1.212c-0.321 0.322-0.758 0.502-1.212 0.502h-27.429c-0.455 0-0.891-0.181-1.212-0.502s-0.502-0.758-0.502-1.212z">
            </path>
        </symbol>
        <symbol id="icon-pencil-square" viewBox="0 0 32 32">
            <path stroke-linejoin="round" stroke-linecap="round" stroke-miterlimit="4" stroke-width="1.5238"
                d="M22.647 5.314l2.571-2.572c0.536-0.536 1.263-0.837 2.021-0.837s1.485 0.301 2.021 0.837c0.536 0.536 0.837 1.263 0.837 2.021s-0.301 1.485-0.837 2.021l-16.181 16.181c-0.806 0.805-1.799 1.397-2.891 1.722l-4.091 1.219 1.219-4.091c0.325-1.092 0.917-2.085 1.722-2.891l13.611-13.609zM22.647 5.314l4.020 4.020M24.381 19.81v7.238c0 0.909-0.361 1.781-1.004 2.424s-1.515 1.004-2.424 1.004h-16c-0.909 0-1.781-0.361-2.424-1.004s-1.004-1.515-1.004-2.424v-16c0-0.909 0.361-1.781 1.004-2.424s1.515-1.004 2.424-1.004h7.238">
            </path>
        </symbol>
        <symbol id="icon-plus-circle" viewBox="0 0 32 32">
            <path stroke-linejoin="round" stroke-linecap="round" stroke-miterlimit="4" stroke-width="1.6"
                d="M16 11.2v9.6M20.8 16h-9.6M30.4 16c0 1.891-0.372 3.764-1.096 5.511s-1.784 3.334-3.121 4.672c-1.337 1.337-2.925 2.398-4.672 3.121s-3.62 1.096-5.511 1.096-3.764-0.372-5.511-1.096c-1.747-0.724-3.335-1.784-4.672-3.121s-2.398-2.925-3.122-4.672c-0.724-1.747-1.096-3.62-1.096-5.511 0-3.819 1.517-7.482 4.218-10.182s6.363-4.218 10.182-4.218c3.819 0 7.482 1.517 10.182 4.218s4.218 6.363 4.218 10.182z">
            </path>
        </symbol>
            <symbol id="icon-plus-small" viewBox="0 0 32 32">
            <path stroke-linejoin="round" stroke-linecap="round" stroke-miterlimit="4" stroke-width="2.2857"
                d="M16 0.571c0.455 0 0.891 0.181 1.212 0.502s0.502 0.758 0.502 1.212v12h12c0.455 0 0.891 0.181 1.212 0.502s0.502 0.758 0.502 1.212-0.181 0.891-0.502 1.212c-0.321 0.322-0.758 0.502-1.212 0.502h-12v12c0 0.455-0.181 0.891-0.502 1.212s-0.758 0.502-1.212 0.502-0.891-0.181-1.212-0.502c-0.322-0.321-0.502-0.758-0.502-1.212v-12h-12c-0.455 0-0.891-0.181-1.212-0.502s-0.502-0.758-0.502-1.212c0-0.455 0.181-0.891 0.502-1.212s0.758-0.502 1.212-0.502h12v-12c0-0.455 0.181-0.891 0.502-1.212s0.758-0.502 1.212-0.502z"></path>
        </symbol>
        <symbol id="icon-presentation-chart-bar" viewBox="0 0 32 32">
            <path fill="none" stroke="#407bff" stroke-linecap="round" stroke-linejoin="round" stroke-width="1.6"
                d="M5 4v15a3.004 3.004 0 0 0 3 3h3M5 4H3m2 0h22M11 22h10m-10 0-1.333 4M27 4h2m-2 0v15a3.004 3.004 0 0 1-3 3h-3m0 0 1.333 4M9.667 26h12.667M9.667 26 9 28m13.333-2L23 28M12 15v2m4-5v5m4-8v8"
                style="stroke:var(--color1, #407bff)" />
        </symbol>
        <symbol id="icon-trash" viewBox="0 0 32 32">
            <path stroke-linejoin="round" stroke-linecap="round" stroke-miterlimit="4" stroke-width="1.4545"
                d="M19.985 11.636l-0.503 13.091M12.518 24.727l-0.503-13.091M26.513 6.967c0.497 0.076 0.992 0.156 1.487 0.241M26.513 6.967l-1.553 20.193c-0.063 0.822-0.435 1.59-1.040 2.15s-1.399 0.871-2.224 0.871h-11.392c-0.825 0-1.619-0.311-2.224-0.871s-0.977-1.328-1.040-2.15l-1.553-20.193M26.513 6.967c-1.679-0.254-3.366-0.446-5.059-0.577M5.487 6.967c-0.497 0.074-0.992 0.154-1.487 0.24M5.487 6.967c1.679-0.254 3.366-0.446 5.059-0.577M21.455 6.39v-1.332c0-1.716-1.324-3.148-3.040-3.201-1.609-0.051-3.22-0.051-4.829 0-1.716 0.054-3.040 1.487-3.040 3.201v1.332M21.455 6.39c-3.631-0.281-7.278-0.281-10.909 0">
            </path>
        </symbol>
        <symbol id="icon-user" viewBox="0 0 32 32">
            <path stroke-linejoin="miter" stroke-linecap="butt" stroke-miterlimit="4" stroke-width="1.3333"
                d="M31.333 16c0 8.468-6.865 15.333-15.333 15.333s-15.333-6.865-15.333-15.333c0-8.468 6.865-15.333 15.333-15.333s15.333 6.865 15.333 15.333z">
            </path>
            <path stroke-linejoin="round" stroke-linecap="round" stroke-miterlimit="4" stroke-width="1.3333"
                d="M20.001 9.436c0 1.088-0.421 2.132-1.172 2.901s-1.768 1.202-2.829 1.202c-1.061 0-2.079-0.432-2.829-1.202s-1.172-1.813-1.172-2.901c0-1.088 0.421-2.132 1.172-2.901s1.768-1.202 2.829-1.202c1.061 0 2.079 0.432 2.829 1.202s1.172 1.813 1.172 2.901zM8 24.881c0.034-2.153 0.892-4.205 2.389-5.715s3.512-2.356 5.611-2.356c2.099 0 4.115 0.846 5.611 2.356s2.355 3.562 2.389 5.715c-2.51 1.18-5.239 1.789-8 1.785-2.855 0-5.564-0.639-8-1.785z">
            </path>
        </symbol>
        <symbol id="icon-wrench-screwdriver" viewBox="0 0 32 32">
            <path fill="none" stroke="#407bff" stroke-linecap="round" stroke-linejoin="round" stroke-width="1.6"
                d="M15.227 20.227 23 28a3.535 3.535 0 0 0 5.996-2.513 3.535 3.535 0 0 0-.995-2.488l-7.836-7.836m-4.938 5.064 3.328-4.04c.423-.512.987-.835 1.611-1.021.733-.219 1.551-.251 2.324-.187a6.006 6.006 0 0 0 6.486-5.404 6.013 6.013 0 0 0-.504-3.045l-4.368 4.369a4.01 4.01 0 0 1-3-3l4.368-4.368a6.008 6.008 0 0 0-7.912 2.943 6.01 6.01 0 0 0-.536 3.039c.121 1.435-.095 3.019-1.205 3.933l-.136.113m-.456 6.668L9.02 27.764a3.403 3.403 0 0 1-2.46 1.239A3.4 3.4 0 0 1 3 25.442a3.39 3.39 0 0 1 1.239-2.46l9.116-7.507-5.476-5.476H6l-3-5 2-2 5 3v1.879l5.68 5.68-2.327 1.916M24.5 24.5 21 21M6.489 25.5H6.5v.011h-.011V25.5z"
                style="stroke:var(--color1, #407bff)" />
        </symbol>
        <symbol id="icon-close" viewBox="0 0 32 32">
            <path fill="none" stroke="#407bff" style="stroke: var(--color1, #407bff)" stroke-linejoin="round"
                stroke-linecap="round" stroke-miterlimit="4" stroke-width="2" d="M8 24l16-16M8 8l16 16"></path>
        </symbol>
        <symbol id="icon-glas-water" viewBox="0 0 32 32">
            <path
                d="M5.565 2.783l1.901 26.363v0.072h16.367l1.901-26.353v-0.082h-20.169zM23.16 28.479h-15.017l-1.426-19.747h0.784l1.289 17.403c0.008 0.092 0.049 0.177 0.115 0.24s0.153 0.098 0.244 0.099h0.030c0.047-0.003 0.093-0.016 0.136-0.037s0.080-0.051 0.111-0.087c0.031-0.036 0.055-0.078 0.070-0.124s0.021-0.094 0.017-0.141l-1.289-17.351h16.362l-1.426 19.747zM24.637 7.994h-16.468l-0.283-3.847c-0.009-0.094-0.052-0.181-0.122-0.244s-0.16-0.097-0.252-0.095c-0.095 0.009-0.183 0.055-0.245 0.129s-0.094 0.169-0.088 0.266l0.283 3.795h-0.794l-0.324-4.483h18.617l-0.324 4.478z">
            </path>
            <path
                d="M11.359 12.384c0.236 0 0.467-0.071 0.663-0.204s0.349-0.322 0.439-0.543c0.090-0.221 0.114-0.465 0.068-0.699s-0.16-0.45-0.327-0.62c-0.167-0.169-0.38-0.285-0.611-0.331s-0.471-0.023-0.689 0.069c-0.218 0.092-0.404 0.247-0.536 0.446s-0.201 0.433-0.201 0.672c0 0.321 0.126 0.629 0.35 0.856s0.527 0.355 0.844 0.355zM11.359 10.697c0.093 0 0.184 0.028 0.261 0.080s0.138 0.127 0.173 0.214c0.036 0.087 0.045 0.183 0.027 0.276s-0.063 0.178-0.129 0.244c-0.066 0.067-0.15 0.112-0.241 0.131s-0.186 0.009-0.272-0.027c-0.086-0.036-0.159-0.097-0.211-0.176s-0.079-0.171-0.079-0.265c0-0.127 0.050-0.248 0.138-0.337s0.208-0.14 0.332-0.14z">
            </path>
            <path
                d="M11.354 16.318c0.003 0.239 0.076 0.472 0.209 0.669s0.321 0.35 0.539 0.439 0.458 0.111 0.689 0.062c0.231-0.049 0.442-0.166 0.607-0.336s0.277-0.387 0.321-0.621 0.019-0.477-0.072-0.698c-0.091-0.22-0.245-0.408-0.442-0.54s-0.427-0.201-0.663-0.2c-0.158 0.001-0.313 0.033-0.459 0.095s-0.277 0.153-0.387 0.267-0.198 0.249-0.256 0.397c-0.059 0.148-0.088 0.307-0.086 0.467zM13.013 16.318c0 0.094-0.028 0.187-0.079 0.265s-0.125 0.14-0.211 0.176c-0.086 0.036-0.18 0.046-0.272 0.027s-0.175-0.064-0.241-0.131-0.111-0.152-0.129-0.244c-0.018-0.093-0.009-0.188 0.027-0.276s0.096-0.162 0.173-0.214 0.168-0.080 0.261-0.080c0.125 0 0.244 0.050 0.333 0.14s0.138 0.211 0.138 0.337z">
            </path>
            <path
                d="M19.834 16.349c0.236 0 0.467-0.071 0.663-0.204s0.349-0.322 0.439-0.543c0.090-0.221 0.114-0.465 0.068-0.699s-0.16-0.45-0.327-0.62c-0.167-0.169-0.379-0.285-0.611-0.331s-0.471-0.023-0.689 0.069c-0.218 0.092-0.404 0.247-0.535 0.446s-0.201 0.433-0.201 0.672c0 0.321 0.126 0.629 0.349 0.856s0.527 0.355 0.844 0.355zM19.834 14.666c0.093 0 0.184 0.028 0.262 0.081s0.138 0.127 0.173 0.215c0.035 0.088 0.044 0.184 0.026 0.276s-0.064 0.178-0.13 0.244c-0.066 0.066-0.151 0.111-0.242 0.129s-0.186 0.008-0.272-0.029-0.159-0.099-0.21-0.178c-0.051-0.079-0.078-0.172-0.077-0.266 0.001-0.126 0.051-0.246 0.14-0.334s0.207-0.138 0.331-0.138z">
            </path>
            <path
                d="M15.677 14.066c0.236 0 0.467-0.071 0.663-0.204s0.349-0.322 0.439-0.543c0.090-0.221 0.114-0.464 0.068-0.699s-0.16-0.45-0.327-0.62c-0.167-0.169-0.38-0.285-0.611-0.331s-0.471-0.023-0.689 0.069c-0.218 0.092-0.404 0.247-0.536 0.446s-0.201 0.433-0.201 0.672c0 0.321 0.126 0.629 0.35 0.856s0.527 0.354 0.844 0.354zM15.677 12.379c0.093 0 0.184 0.028 0.261 0.080s0.138 0.127 0.173 0.214c0.036 0.087 0.045 0.183 0.027 0.276s-0.063 0.177-0.129 0.244c-0.066 0.067-0.15 0.112-0.241 0.131s-0.186 0.009-0.272-0.027-0.159-0.097-0.211-0.176c-0.052-0.079-0.079-0.171-0.079-0.265-0.003-0.065 0.006-0.129 0.028-0.19s0.056-0.116 0.1-0.164c0.044-0.047 0.097-0.084 0.156-0.11s0.122-0.039 0.186-0.039v0.026z">
            </path>
            <path
                d="M13.402 20.929c0.005 0.197 0.067 0.387 0.178 0.548s0.267 0.285 0.447 0.357c0.181 0.072 0.378 0.088 0.568 0.047s0.363-0.139 0.498-0.279c0.135-0.141 0.227-0.319 0.263-0.512s0.015-0.393-0.060-0.574c-0.075-0.181-0.202-0.336-0.363-0.445s-0.351-0.167-0.545-0.167c-0.264 0.007-0.514 0.118-0.699 0.309s-0.287 0.449-0.287 0.716zM14.388 20.662c0.052 0 0.103 0.016 0.146 0.045s0.077 0.071 0.097 0.12 0.025 0.102 0.015 0.154c-0.010 0.052-0.035 0.099-0.072 0.137s-0.084 0.063-0.135 0.073c-0.051 0.010-0.104 0.005-0.152-0.015s-0.089-0.054-0.118-0.098c-0.029-0.044-0.044-0.096-0.044-0.148 0-0.071 0.028-0.139 0.077-0.189s0.116-0.078 0.186-0.078z">
            </path>
            <path
                d="M18.17 19.816c0.202 0.007 0.402-0.048 0.574-0.157s0.306-0.269 0.388-0.457c0.081-0.188 0.105-0.397 0.068-0.599s-0.133-0.388-0.275-0.534c-0.143-0.146-0.325-0.245-0.524-0.285s-0.405-0.018-0.591 0.063c-0.186 0.081-0.345 0.216-0.454 0.389s-0.166 0.375-0.161 0.58c0.006 0.262 0.111 0.511 0.292 0.697s0.426 0.295 0.684 0.304zM18.17 18.549c0.070 0 0.137 0.028 0.186 0.078s0.077 0.118 0.077 0.189c0 0.071-0.028 0.139-0.077 0.189s-0.116 0.078-0.186 0.078c-0.070 0-0.138-0.028-0.188-0.078s-0.079-0.118-0.080-0.189c0-0.035 0.007-0.071 0.020-0.103s0.033-0.062 0.058-0.087 0.055-0.044 0.087-0.057c0.032-0.013 0.067-0.019 0.102-0.019z">
            </path>
            <path
                d="M20.253 11.538c0.2 0 0.395-0.060 0.562-0.173s0.296-0.273 0.372-0.46c0.077-0.187 0.097-0.394 0.058-0.593s-0.135-0.382-0.277-0.525c-0.141-0.143-0.322-0.241-0.518-0.281s-0.399-0.019-0.584 0.058c-0.185 0.078-0.343 0.209-0.454 0.378s-0.17 0.367-0.17 0.57c0 0.272 0.107 0.533 0.296 0.725s0.447 0.3 0.715 0.3zM20.253 10.271c0.039-0.011 0.080-0.013 0.12-0.006s0.078 0.024 0.11 0.049c0.032 0.025 0.059 0.057 0.077 0.094s0.028 0.078 0.028 0.119-0.009 0.082-0.028 0.119c-0.018 0.037-0.044 0.069-0.077 0.094s-0.070 0.042-0.11 0.049c-0.040 0.008-0.081 0.006-0.12-0.006-0.039 0.011-0.080 0.013-0.12 0.006s-0.078-0.024-0.11-0.049c-0.032-0.025-0.059-0.057-0.077-0.094s-0.028-0.078-0.028-0.119 0.009-0.082 0.028-0.119c0.018-0.037 0.044-0.069 0.077-0.094s0.070-0.042 0.11-0.049c0.040-0.008 0.081-0.006 0.12 0.006z">
            </path>
            <path
                d="M10.369 27.191c-0.045 0.021-0.086 0.052-0.119 0.089s-0.059 0.082-0.074 0.13c-0.016 0.048-0.021 0.099-0.017 0.149s0.019 0.099 0.043 0.144c0.031 0.060 0.078 0.11 0.135 0.145s0.122 0.054 0.189 0.055c0.056 0.002 0.112-0.011 0.162-0.036 1.545-0.803 3.255-1.225 4.99-1.231 1.837 0.027 3.648 0.441 5.319 1.215 0.066 0.035 0.141 0.049 0.215 0.039s0.143-0.042 0.198-0.093c0.055-0.051 0.094-0.118 0.11-0.192s0.010-0.151-0.018-0.221c-0.036-0.091-0.105-0.164-0.192-0.205-1.769-0.821-3.687-1.258-5.633-1.282-1.845 0.002-3.664 0.444-5.309 1.292z">
            </path>
        </symbol>
        <symbol id="icon-plus" viewBox="0 0 32 32">
<path stroke-linejoin="round" stroke-linecap="round" stroke-miterlimit="4" stroke-width="2" d="M16 12v8M20 16h-8M28 16c0 1.576-0.31 3.136-0.913 4.592s-1.487 2.779-2.601 3.893c-1.114 1.114-2.437 1.998-3.893 2.601s-3.016 0.913-4.592 0.913-3.136-0.31-4.592-0.913c-1.456-0.603-2.779-1.487-3.893-2.601s-1.998-2.437-2.601-3.893c-0.603-1.456-0.913-3.016-0.913-4.592 0-3.183 1.264-6.235 3.515-8.485s5.303-3.515 8.485-3.515c3.183 0 6.235 1.264 8.485 3.515s3.515 5.303 3.515 8.485z"></path>
</symbol>
    </defs>
</svg>